<svg width="41" height="39" viewBox="0 0 41 39" fill="none" xmlns="http://www.w3.org/2000/svg">
<path d="M3.6244 14.2108C1.86372 14.2108 0.5 15.529 0.5 17.0885V17.7744C0.5 18.1493 0.500886 20.3203 1.85723 22.4247L3.6244 14.2108ZM3.6244 14.2108H12.554M3.6244 14.2108H12.554M12.554 14.2108C12.0569 15.2516 11.7981 16.383 11.8 17.5319M12.554 14.2108L11.8 17.5319M11.8 17.5319C11.7986 18.6927 12.063 19.8392 12.5742 20.8945C12.9016 21.5706 13.3252 22.1989 13.8313 22.7631H12.8494C11.6001 22.7632 10.3777 23.1182 9.34518 23.7847C8.43817 24.3701 7.71388 25.1728 7.24851 26.1099C4.53666 25.4002 2.85855 23.9771 1.85731 22.4248L11.8 17.5319ZM29.2 17.532C29.202 16.3831 28.9432 15.2516 28.446 14.2108H37.3756C39.1379 14.2108 40.5 15.5306 40.5 17.0885V17.7763C40.5 18.1474 40.4991 20.3206 39.1446 22.4251C38.1412 23.9774 36.463 25.4003 33.7516 26.1099C33.2864 25.1727 32.5621 24.3698 31.6551 23.7843C30.6225 23.1178 29.4 22.7629 28.1506 22.7631C28.1506 22.7631 28.1505 22.7631 28.1505 22.7631H27.1687C27.6748 22.1989 28.0984 21.5706 28.4258 20.8945C28.9369 19.8392 29.2013 18.6928 29.2 17.532ZM29.2 17.532C29.2 17.5317 29.2 17.5314 29.2 17.5311L28.7 17.5317L29.2 17.5327C29.2 17.5325 29.2 17.5323 29.2 17.532ZM12.8494 25.6736C11.0887 25.6736 9.725 26.9918 9.725 28.5513V29.2372C9.725 29.6121 9.7259 31.7831 11.0801 33.8875C12.4956 36.0812 15.2865 38.0469 20.5 38.0469C25.7128 38.0469 28.5018 36.0817 29.9196 33.8879L12.8494 25.6736ZM12.8494 25.6736H28.1506M12.8494 25.6736H28.1506M28.1506 25.6736C29.9111 25.6736 31.275 26.9935 31.275 28.5513M28.1506 25.6736L31.275 28.5513M31.275 28.5513V29.2391M31.275 28.5513V29.2391M31.275 29.2391C31.275 29.6102 31.2741 31.7829 29.92 33.8872L31.275 29.2391ZM15.2828 9.75586C14.2255 10.7412 12.7844 11.3003 11.275 11.3003C9.7656 11.3003 8.32449 10.7412 7.26718 9.75586C6.21105 8.77162 5.625 7.44455 5.625 6.06893C5.625 4.6933 6.21105 3.36624 7.26718 2.382C8.32449 1.39665 9.7656 0.837524 11.275 0.837524C12.7844 0.837524 14.2255 1.39665 15.2828 2.382C16.3389 3.36624 16.925 4.6933 16.925 6.06893C16.925 7.44456 16.3389 8.77162 15.2828 9.75586ZM35.375 6.06893C35.375 7.44455 34.7889 8.77162 33.7328 9.75586C32.6755 10.7412 31.2344 11.3003 29.725 11.3003C28.2156 11.3003 26.7745 10.7412 25.7172 9.75586C24.6611 8.77162 24.075 7.44456 24.075 6.06893C24.075 4.6933 24.6611 3.36624 25.7172 2.382C26.7745 1.39665 28.2156 0.837524 29.725 0.837524C31.2344 0.837524 32.6755 1.39665 33.7328 2.382C34.7889 3.36624 35.375 4.6933 35.375 6.06893ZM22.6734 22.3604C21.9853 22.626 21.2467 22.7631 20.5 22.7631C18.9906 22.7631 17.5495 22.204 16.4922 21.2187C15.4361 20.2344 14.85 18.9074 14.85 17.5317C14.85 16.1561 15.4361 14.829 16.4922 13.8448C17.5495 12.8595 18.9906 12.3003 20.5 12.3003C21.2467 12.3003 21.9853 12.4374 22.6734 12.7031C23.3615 12.9687 23.9846 13.3572 24.5078 13.8448C25.031 14.3324 25.4439 14.9092 25.725 15.5415C26.0059 16.1737 26.15 16.8498 26.15 17.5317C26.15 18.2136 26.0059 18.8898 25.725 19.522C25.4439 20.1542 25.031 20.7311 24.5078 21.2187C23.9846 21.7063 23.3615 22.0948 22.6734 22.3604Z" fill="#A8DBD8" stroke="#053644"/>
</svg>
