<svg width="45" height="35" viewBox="0 0 45 35" fill="none" xmlns="http://www.w3.org/2000/svg">
<path d="M30.7501 6.0051C30.7498 7.22651 30.2442 8.39831 29.3433 9.26508C27.2693 11.2625 25.2569 13.3451 23.1043 15.2694C22.864 15.4786 22.5488 15.5916 22.2237 15.5852C21.8987 15.5788 21.5886 15.4534 21.3576 15.2349L15.1568 9.26711C14.2555 8.39978 13.7496 7.22723 13.7496 6.0051C13.7496 4.78298 14.2555 3.61042 15.1568 2.7431C15.6066 2.31029 16.1416 1.96679 16.7309 1.73238C17.3203 1.49797 17.9524 1.37728 18.5908 1.37728C19.2292 1.37728 19.8613 1.49797 20.4507 1.73238C21.0401 1.96679 21.575 2.31029 22.0248 2.7431L22.2501 2.9603L22.4753 2.7431C23.1504 2.09124 24.0133 1.64602 24.9542 1.46413C25.895 1.28223 26.8713 1.37189 27.7586 1.72169C28.6459 2.07149 29.4042 2.6656 29.9369 3.42839C30.4697 4.19119 30.7527 5.08815 30.7501 6.0051Z" stroke="#A8DBD8" stroke-width="1.5" stroke-linejoin="round"/>
<path d="M30.7501 6.0051C30.7498 7.22651 30.2442 8.39831 29.3433 9.26508C27.2693 11.2625 25.2569 13.3451 23.1043 15.2694C22.864 15.4786 22.5488 15.5916 22.2237 15.5852C21.8987 15.5788 21.5886 15.4534 21.3576 15.2349L15.1568 9.26711C14.2555 8.39978 13.7496 7.22723 13.7496 6.0051C13.7496 4.78298 14.2555 3.61042 15.1568 2.7431C15.6066 2.31029 16.1416 1.96679 16.7309 1.73238C17.3203 1.49797 17.9524 1.37728 18.5908 1.37728C19.2292 1.37728 19.8613 1.49797 20.4507 1.73238C21.0401 1.96679 21.575 2.31029 22.0248 2.7431L22.2501 2.9603L22.4753 2.7431C23.1504 2.09124 24.0133 1.64602 24.9542 1.46413C25.895 1.28223 26.8713 1.37189 27.7586 1.72169C28.6459 2.07149 29.4042 2.6656 29.9369 3.42839C30.4697 4.19119 30.7527 5.08815 30.7501 6.0051Z" stroke="black" stroke-opacity="0.69" stroke-width="1.5" stroke-linejoin="round"/>
<path d="M35 33.855L43.126 26.0927C43.3652 25.8646 43.4997 25.555 43.5 25.2321V14.5712C43.5 13.7637 43.1642 12.9892 42.5664 12.4182C41.9686 11.8472 41.1579 11.5264 40.3125 11.5264C39.4671 11.5264 38.6564 11.8472 38.0586 12.4182C37.4608 12.9892 37.125 13.7637 37.125 14.5712V23.7056" stroke="#A8DBD8" stroke-width="1.5" stroke-linecap="round" stroke-linejoin="round"/>
<path d="M35 25.7355L36.8232 23.9939C36.919 23.9025 36.995 23.7939 37.0468 23.6745C37.0986 23.555 37.1251 23.4269 37.125 23.2976C37.1247 23.1151 37.0713 22.9362 36.9707 22.781C36.8702 22.6258 36.7264 22.5003 36.5555 22.4187L35.6141 21.9701C34.8166 21.5892 33.9138 21.4575 33.0336 21.5938C32.1535 21.73 31.3404 22.1272 30.7096 22.7292L28.8078 24.546C28.0107 25.3072 27.5627 26.3396 27.5625 27.4162V33.855M9.5 33.855L1.374 26.0927C1.13482 25.8646 1.0003 25.555 1 25.2321V14.5712C1 13.7637 1.33583 12.9892 1.9336 12.4182C2.53137 11.8472 3.34212 11.5264 4.1875 11.5264C5.03288 11.5264 5.84363 11.8472 6.4414 12.4182C7.03918 12.9892 7.375 13.7637 7.375 14.5712V23.7056" stroke="#A8DBD8" stroke-width="1.5" stroke-linecap="round" stroke-linejoin="round"/>
<path d="M9.5 25.7355L7.67675 23.9939C7.58106 23.9024 7.50515 23.7939 7.45338 23.6744C7.4016 23.5549 7.37497 23.4269 7.375 23.2976C7.375 22.9261 7.596 22.5872 7.9445 22.4187L8.88587 21.9701C9.68341 21.5892 10.5862 21.4575 11.4664 21.5938C12.3465 21.73 13.1596 22.1272 13.7904 22.7292L15.6922 24.546C16.4893 25.3072 16.9373 26.3396 16.9375 27.4162V33.855" stroke="#A8DBD8" stroke-width="1.5" stroke-linecap="round" stroke-linejoin="round"/>
</svg>
