<svg width="36" height="34" viewBox="0 0 36 34" fill="none" xmlns="http://www.w3.org/2000/svg">
<path d="M0.883378 16.2443L0.883428 16.2443L0.889771 16.2384L4.48977 12.8951L17.0897 1.19339C17.3312 0.969236 17.666 0.837524 18.0221 0.837524C18.3783 0.837524 18.7131 0.969237 18.9545 1.19339L35.151 16.2352C35.3821 16.4588 35.5027 16.7495 35.5 17.0432C35.4972 17.3382 35.37 17.6285 35.1325 17.8491C34.8939 18.0707 34.5637 18.2022 34.2116 18.205C33.8609 18.2079 33.5293 18.0828 33.2863 17.8663L32.7624 17.3796L31.9221 16.5993V17.746V28.7557C31.9221 29.9407 31.4156 31.0854 30.5002 31.9355C29.5837 32.7867 28.3331 33.2707 27.0221 33.2707H9.02212C7.71111 33.2707 6.46057 32.7867 5.54399 31.9355C4.62867 31.0854 4.12212 29.9407 4.12212 28.7557V17.746V16.5993L3.28186 17.3796L2.75447 17.8694L2.75441 17.8694L2.74816 17.8754C2.6299 17.9891 2.48643 18.0817 2.32518 18.146C2.16388 18.2104 1.9892 18.2447 1.81161 18.2461C1.63401 18.2475 1.45862 18.2161 1.296 18.1543C1.13341 18.0925 0.988026 18.0021 0.86746 17.8902C0.746975 17.7783 0.653883 17.6473 0.591607 17.5059L0.13404 17.7075L0.591606 17.5059C0.529383 17.3647 0.498641 17.2148 0.500046 17.0646C0.501451 16.9145 0.534997 16.765 0.599942 16.6246L0.146136 16.4147L0.599943 16.6246C0.664944 16.4841 0.760621 16.3544 0.883378 16.2443Z" fill="#A8DBD8" stroke="#2E6963"/>
</svg>
